<svg xmlns="http://www.w3.org/2000/svg" viewBox="0 0 200 200">
  <defs>
    <linearGradient id="phoneGrad" x1="0%" y1="0%" x2="100%" y2="100%">
      <stop offset="0%" style="stop-color:#f093fb;stop-opacity:1" />
      <stop offset="100%" style="stop-color:#f5576c;stop-opacity:1" />
    </linearGradient>
  </defs>
  <!-- Phone Body -->
  <rect x="60" y="30" width="80" height="140" rx="10" fill="url(#phoneGrad)" stroke="#fff" stroke-width="3"/>
  <!-- Screen -->
  <rect x="68" y="45" width="64" height="100" rx="3" fill="#1a1a1a"/>
  <!-- App Grid -->
  <rect x="75" y="52" width="15" height="15" rx="2" fill="#ff6b6b"/>
  <rect x="95" y="52" width="15" height="15" rx="2" fill="#4ecdc4"/>
  <rect x="115" y="52" width="15" height="15" rx="2" fill="#ffd93d"/>
  <rect x="75" y="72" width="15" height="15" rx="2" fill="#95e1d3"/>
  <rect x="95" y="72" width="15" height="15" rx="2" fill="#ff8c42"/>
  <rect x="115" y="72" width="15" height="15" rx="2" fill="#a8e6cf"/>
  <rect x="75" y="92" width="15" height="15" rx="2" fill="#dda15e"/>
  <rect x="95" y="92" width="15" height="15" rx="2" fill="#bc6c25"/>
  <rect x="115" y="92" width="15" height="15" rx="2" fill="#fefae0"/>
  <!-- Cart Icon -->
  <path d="M 75 120 L 78 115 L 120 115 L 123 120 L 122 130 L 76 130 Z" fill="#ffd700" stroke="#fff" stroke-width="2"/>
  <circle cx="82" cy="135" r="3" fill="#ffd700"/>
  <circle cx="115" cy="135" r="3" fill="#ffd700"/>
  <!-- Home Button -->
  <circle cx="100" cy="157" r="8" fill="#fff" opacity="0.3"/>
</svg>